<?xml version="1.0" encoding="utf-8"?>
<!-- Generator: Adobe Illustrator 26.2.1, SVG Export Plug-In . SVG Version: 6.00 Build 0)  -->
<svg version="1.1" id="Layer_1" xmlns="http://www.w3.org/2000/svg" xmlns:xlink="http://www.w3.org/1999/xlink" x="0px" y="0px"
	 viewBox="0 0 500 500" style="enable-background:new 0 0 500 500;" xml:space="preserve">
<style type="text/css">
	.st0{fill:#5186EC;}
	.st1{fill:#FFFFFF;}
</style>
<g>
	<path class="st0" d="M461.2,119.5H346.3v-17.6c0-27.7-22.5-50.3-50.3-50.3h-92.2c-27.7,0-50.3,22.5-50.3,50.3v17.6H38.8
		c-12.1,0-21.8,9.8-21.8,21.8v99.9h180.4c2.1,0.3,4.3,0.5,6.5,0.5h92.2c2.2,0,4.4-0.2,6.5-0.5H483v-99.9
		C483,129.3,473.2,119.5,461.2,119.5z M183.2,101.9c0-11.4,9.3-20.7,20.7-20.7h92.2c11.4,0,20.7,9.3,20.7,20.7v17.6H183.2V101.9z"/>
	<path class="st0" d="M367.1,292.5c0,12.1-9.8,21.9-21.9,21.9c-12.1,0-21.9-9.8-21.9-21.9v-30.6H176.6v30.6c0,12-9.9,21.9-21.9,21.9
		s-21.9-9.9-21.9-21.9v-30.6H17v164.6c0,12.1,9.8,21.8,21.8,21.8h422.4c12.1,0,21.8-9.8,21.8-21.8V261.9H367.1V292.5z"/>
</g>
</svg>
