<?xml version="1.0" encoding="utf-8"?>
<!-- Generator: Adobe Illustrator 26.2.1, SVG Export Plug-In . SVG Version: 6.00 Build 0)  -->
<svg version="1.1" id="Layer_1" xmlns="http://www.w3.org/2000/svg" xmlns:xlink="http://www.w3.org/1999/xlink" x="0px" y="0px"
	 viewBox="0 0 500 500" style="enable-background:new 0 0 500 500;" xml:space="preserve">
<style type="text/css">
	.st0{fill:#5186EC;}
	.st1{fill:#FFFFFF;}
</style>
<g>
	<path class="st0" d="M228.5,398.3c-44.7-24.9-103.9-29.1-134.5-29.5c-11.3-0.1-20.4-9.6-20.4-21.4c0-47.3,0-160.6,0-228.6
		c-11.7,0.6-23.3,1.6-34.7,2.8c-6,0.7-10.6,5.8-10.6,11.9v271.5c0,6.6,5.4,12,11.9,12c0,0,0,0,0,0c0.9,0,1.8-0.1,2.8-0.3
		c31.5-7.4,89.2-16.4,186.8-17.9C229.3,398.7,228.9,398.5,228.5,398.3z"/>
	<path class="st0" d="M461.2,121.6c-11.4-1.3-23-2.2-34.7-2.8c0,68,0,181.3,0,228.6c0,11.8-9.1,21.3-20.4,21.4
		c-30.7,0.3-89.8,4.5-134.5,29.5c-0.4,0.2-0.8,0.4-1.2,0.6c97.6,1.5,155.3,10.5,186.8,17.9c0.9,0.2,1.9,0.3,2.8,0.3
		c6.6,0,11.9-5.4,11.9-12V133.6C471.8,127.4,467.3,122.3,461.2,121.6z"/>
	<path class="st0" d="M240.4,133.1c-14.4-13.6-57.3-45.8-146-50.3l-0.2,0c-1.7,0-3.5,1.1-3.5,3.6l0,261c0,2,1.5,3.5,3.4,3.5
		c32.7,0.4,94.6,4.9,142.5,31.6c0.5,0.3,0.9,0.4,1.3,0.4c1.4,0,3.5-1.4,3.5-3.8v0V135.6C241.4,134.6,241.1,133.7,240.4,133.1z
		 M227.8,288c-1,1.4-2.5,2.2-4.1,2.2c-1,0-1.9-0.3-2.8-0.8c-18.1-12.1-50.4-27.8-101.2-34c-2.7-0.3-4.7-2.8-4.3-5.5
		c0.3-2.7,2.8-4.7,5.5-4.3c52.8,6.4,86.5,22.9,105.5,35.6C228.7,282.6,229.3,285.7,227.8,288z M227.8,254.9c-1,1.4-2.5,2.2-4.1,2.2
		c-1,0-1.9-0.3-2.8-0.8c-18.1-12.1-50.4-27.8-101.2-34c-2.7-0.3-4.7-2.8-4.3-5.5c0.3-2.7,2.8-4.7,5.5-4.3
		c52.8,6.4,86.5,22.9,105.5,35.6C228.7,249.5,229.3,252.6,227.8,254.9z M227.8,221.7c-1,1.4-2.5,2.2-4.1,2.2c-1,0-1.9-0.3-2.8-0.8
		c-18.1-12.1-50.4-27.8-101.2-34c-2.7-0.3-4.7-2.8-4.3-5.5c0.3-2.7,2.8-4.7,5.5-4.3c52.8,6.4,86.5,22.9,105.5,35.6
		C228.7,216.3,229.3,219.4,227.8,221.7z M227.8,188.6c-1,1.4-2.5,2.2-4.1,2.2c-1,0-1.9-0.3-2.8-0.8c-18.1-12.1-50.4-27.8-101.2-34
		c-2.7-0.3-4.7-2.8-4.3-5.5c0.3-2.7,2.8-4.7,5.5-4.3c52.8,6.4,86.5,22.9,105.5,35.6C228.7,183.2,229.3,186.3,227.8,188.6z"/>
	<path class="st0" d="M409.3,86.4c0-2.5-1.8-3.5-3.5-3.6l-0.2,0c-88.7,4.5-131.6,36.6-146,50.3c-0.6,0.6-1,1.5-1,2.5v243.5
		c0,2.4,2.1,3.8,3.5,3.8c0.4,0,0.9-0.1,1.3-0.4c47.8-26.7,109.8-31.2,142.5-31.6c1.9,0,3.4-1.6,3.4-3.5L409.3,86.4z M379,255.4
		c-50.8,6.2-83.1,21.9-101.2,34c-0.9,0.6-1.8,0.8-2.8,0.8c-1.6,0-3.2-0.8-4.1-2.2c-1.5-2.3-0.9-5.4,1.4-6.9
		c19-12.7,52.8-29.2,105.5-35.6c2.7-0.3,5.2,1.6,5.5,4.3C383.7,252.5,381.7,255,379,255.4z M379,222.2c-50.8,6.2-83.1,21.9-101.2,34
		c-0.9,0.6-1.8,0.8-2.8,0.8c-1.6,0-3.2-0.8-4.1-2.2c-1.5-2.3-0.9-5.4,1.4-6.9c19-12.7,52.8-29.2,105.5-35.6c2.7-0.3,5.2,1.6,5.5,4.3
		C383.7,219.4,381.7,221.9,379,222.2z M379,189.1c-50.8,6.2-83.1,21.9-101.2,34c-0.9,0.6-1.8,0.8-2.8,0.8c-1.6,0-3.2-0.8-4.1-2.2
		c-1.5-2.3-0.9-5.4,1.4-6.9c19-12.7,52.8-29.2,105.5-35.6c2.7-0.3,5.2,1.6,5.5,4.3C383.7,186.2,381.7,188.7,379,189.1z M379,155.9
		c-50.8,6.2-83.1,21.9-101.2,34c-0.9,0.6-1.8,0.8-2.8,0.8c-1.6,0-3.2-0.8-4.1-2.2c-1.5-2.3-0.9-5.4,1.4-6.9
		c19-12.7,52.8-29.2,105.5-35.6c2.7-0.4,5.2,1.6,5.5,4.3C383.7,153.1,381.7,155.6,379,155.9z"/>
</g>
</svg>
