<?xml version="1.0" encoding="utf-8"?>
<!-- Generator: Adobe Illustrator 26.2.1, SVG Export Plug-In . SVG Version: 6.00 Build 0)  -->
<svg version="1.1" id="Layer_1" xmlns="http://www.w3.org/2000/svg" xmlns:xlink="http://www.w3.org/1999/xlink" x="0px" y="0px"
	 viewBox="0 0 500 500" style="enable-background:new 0 0 500 500;" xml:space="preserve">
<style type="text/css">
	.st0{fill:#5186EC;}
	.st1{fill:#FFFFFF;}
</style>
<g>
	<path class="st0" d="M222.9,267.2L17.6,199.7c-7.9-2.6-7.9-13.8,0-16.4l221-72.6c7.4-2.4,15.4-2.4,22.8,0l221,72.6
		c7.9,2.6,7.9,13.8,0,16.4l-205.3,67.5C259.5,273,240.5,273,222.9,267.2z"/>
	<path class="st0" d="M277.1,286c-17.6,5.8-36.6,5.8-54.2,0l-108.8-35.8c-4.2-1.4-8.6,1.8-8.6,6.2v68.5c0,36.6,65.8,66.2,146.9,66.2
		c81.1,0,146.9-29.7,146.9-66.2v-70c0-4.4-4.3-7.6-8.6-6.2L277.1,286z"/>
	<rect x="450.2" y="202" class="st0" width="11.5" height="77.8"/>
	<path class="st0" d="M469.9,358.6H442c-5.3,0-9.4-4.8-8.5-10.1l10.1-60.5c0.7-4.2,4.3-7.2,8.5-7.2h7.8c4.2,0,7.8,3.1,8.5,7.2
		l10.1,60.5C479.3,353.8,475.2,358.6,469.9,358.6z"/>
	<g>
		<path class="st0" d="M455.9,296.8c-9.4,0-17-7.6-17-17s7.6-17,17-17s17,7.6,17,17S465.3,296.8,455.9,296.8z"/>
		<path class="st1" d="M455.9,265.6c7.8,0,14.2,6.4,14.2,14.2s-6.4,14.2-14.2,14.2c-7.8,0-14.2-6.4-14.2-14.2
			S448.1,265.6,455.9,265.6 M455.9,260c-10.9,0-19.8,8.9-19.8,19.8c0,10.9,8.9,19.8,19.8,19.8s19.8-8.9,19.8-19.8
			C475.7,268.8,466.8,260,455.9,260L455.9,260z"/>
	</g>
</g>
</svg>
