<?xml version="1.0" encoding="utf-8"?>
<!-- Generator: Adobe Illustrator 26.4.1, SVG Export Plug-In . SVG Version: 6.00 Build 0)  -->
<svg version="1.1" id="Layer_1" xmlns="http://www.w3.org/2000/svg" xmlns:xlink="http://www.w3.org/1999/xlink" x="0px" y="0px"
	 viewBox="0 0 192 192" style="enable-background:new 0 0 192 192;" xml:space="preserve">
<style type="text/css">
	.st0{fill:#37474F;}
	.st1{fill:url(#SVGID_1_);}
	.st2{opacity:0.1;fill:#FFFFFF;enable-background:new    ;}
	.st3{fill:#FFFFFF;filter:url(#Adobe_OpacityMaskFilter);}
	.st4{mask:url(#mask0_53_3551_00000125570116472597318150000013451659708336909978_);}
	.st5{fill:url(#SVGID_00000172424266381254820240000003925352001070172858_);}
	.st6{fill:#7DA1B3;}
	.st7{fill:#5B7C8C;}
	.st8{fill:url(#SVGID_00000038404908747037950960000000678793042543791747_);}
	.st9{opacity:0.15;fill:#FFFFFF;enable-background:new    ;}
	.st10{fill:none;}
	.st11{fill:#FAFAFA;}
</style>
<g>
	<path class="st0" d="M172.5,85.2L25.6,2.9c-6.3-3.5-11.8-3.2-15.4,0.2C7.8,5.4,6.4,9,6.4,13.8v164.3c0,4.8,1.4,8.5,3.8,10.7
		c3.5,3.4,9.1,3.7,15.4,0.2l147-82.3C183.1,100.8,183.1,91.1,172.5,85.2z"/>
	
		<linearGradient id="SVGID_1_" gradientUnits="userSpaceOnUse" x1="93.425" y1="-78.3439" x2="93.425" y2="112.8401" gradientTransform="matrix(1 0 0 -1 0 113.2481)">
		<stop  offset="0" style="stop-color:#FFFFFF;stop-opacity:0"/>
		<stop  offset="1" style="stop-color:#FFFFFF;stop-opacity:0.1"/>
	</linearGradient>
	<path class="st1" d="M172.5,85.2L25.6,2.9c-6.3-3.5-11.8-3.2-15.4,0.2C7.8,5.4,6.4,9,6.4,13.8v164.3c0,4.8,1.4,8.5,3.8,10.7
		c3.5,3.4,9.1,3.7,15.4,0.2l147-82.3C183.1,100.8,183.1,91.1,172.5,85.2z"/>
	<path class="st2" d="M172.6,86.3L25.6,4C15.1-1.9,6.4,3,6.4,14.9v-1.1C6.4,1.9,15-2.9,25.6,2.9l147,82.3c5.5,3.1,8.1,7.2,7.9,11.3
		C180.2,92.8,177.6,89.1,172.6,86.3z"/>
	<defs>
		<filter id="Adobe_OpacityMaskFilter" filterUnits="userSpaceOnUse" x="6.4" y="0.4" width="179.2" height="191.2">
			<feColorMatrix  type="matrix" values="1 0 0 0 0  0 1 0 0 0  0 0 1 0 0  0 0 0 1 0"/>
		</filter>
	</defs>
	
		<mask maskUnits="userSpaceOnUse" x="6.4" y="0.4" width="179.2" height="191.2" id="mask0_53_3551_00000125570116472597318150000013451659708336909978_">
		<path class="st3" d="M181.9,3.1L25.6,2.9c-6.3-3.5-11.8-3.2-15.4,0.2C7.8,5.4,6.4,9,6.4,13.8v164.3c0,4.8,1.4,8.5,3.8,10.7
			c3.5,3.4,9.1,3.7,15.4,0.2l147-82.3c9.9-5.6,18-22.9,9.4-28.9C181.4,77.5,182.6,3.4,181.9,3.1z"/>
	</mask>
	<g class="st4">
		
			<linearGradient id="SVGID_00000042711570864585238910000000456797491125991577_" gradientUnits="userSpaceOnUse" x1="96" y1="-78.3439" x2="96" y2="112.8401" gradientTransform="matrix(1 0 0 -1 0 113.2481)">
			<stop  offset="0" style="stop-color:#FFFFFF;stop-opacity:0"/>
			<stop  offset="1" style="stop-color:#FFFFFF;stop-opacity:0.1"/>
		</linearGradient>
		<path style="fill:url(#SVGID_00000042711570864585238910000000456797491125991577_);" d="M181.9,3.1L25.6,2.9
			c-6.3-3.5-11.8-3.2-15.4,0.2C7.8,5.4,6.4,9,6.4,13.8v164.3c0,4.8,1.4,8.5,3.8,10.7c3.5,3.4,9.1,3.7,15.4,0.2l147-82.3
			c9.9-5.6,18-22.9,9.4-28.9C181.4,77.5,182.6,3.4,181.9,3.1z"/>
		<path class="st6" d="M34,27.3v115.5c0,3.6,3,6.5,6.7,6.5h59.6l62.4-34.9V27.3H34L34,27.3z"/>
		<path class="st7" d="M34,27.3h128.7v24.4H34V27.3z"/>
		
			<linearGradient id="SVGID_00000021107121309508063140000014513248690930708376_" gradientUnits="userSpaceOnUse" x1="104.4903" y1="15.696" x2="125.0607" y2="-23.2113" gradientTransform="matrix(1 0 0 -1 0 113.2481)">
			<stop  offset="0" style="stop-color:#5B7C8C;stop-opacity:0"/>
			<stop  offset="1" style="stop-color:#5B7C8C;stop-opacity:0.4"/>
		</linearGradient>
		<path style="fill:url(#SVGID_00000021107121309508063140000014513248690930708376_);" d="M34,27.3v115.5c0,3.6,3,6.5,6.7,6.5h59.6
			l62.4-34.9V27.3H34L34,27.3z"/>
		<path class="st9" d="M34,27.3h128.7v3.4H34V27.3z"/>
		<rect x="43.2" y="54.8" class="st10" width="119.4" height="80.3"/>
		<path class="st11" d="M135.2,66c-4.9,0-8.9,3.8-8.9,8.6c0,1.2,0.3,2.3,0.7,3.3l-15,14.4c-2.2-0.9-4.7-0.9-7,0l-6.1-5.9
			c0.4-1,0.7-2.2,0.7-3.3c0-4.7-4-8.6-8.9-8.6c-4.9,0-8.9,3.8-8.9,8.6c0,1.2,0.3,2.3,0.7,3.3l-15,14.4c-1.1-0.5-2.3-0.7-3.5-0.7
			c-4.9,0-8.9,3.8-8.9,8.6c0,4.7,4,8.6,8.9,8.6c4.9,0,8.9-3.8,8.9-8.6c0-1.2-0.3-2.3-0.7-3.3l15-14.4c2.2,0.9,4.7,0.9,7,0l6.1,5.9
			c-0.5,1-0.7,2.2-0.7,3.3c0,4.7,4,8.6,8.9,8.6c4.9,0,8.9-3.8,8.9-8.6c0-1.2-0.3-2.3-0.7-3.3l15-14.4c1.1,0.4,2.2,0.7,3.5,0.7
			c4.9,0,8.9-3.8,8.9-8.6C144.1,69.9,140.1,66,135.2,66z"/>
	</g>
</g>
</svg>
