<svg id="Layer_1" data-name="Layer 1" xmlns="http://www.w3.org/2000/svg" xmlns:xlink="http://www.w3.org/1999/xlink" viewBox="0 0 200 200"><defs><style>.cls-1,.cls-12,.cls-8,.cls-9{fill:none;}.cls-2{fill:#e0f2ef;}.cls-3{clip-path:url(#clip-path);}.cls-4{fill:#84ccbb;}.cls-5{fill:#fff;}.cls-6{fill:#b4e0d5;}.cls-7{fill:#5186ec;}.cls-8,.cls-9{stroke:#5186ec;}.cls-12,.cls-8,.cls-9{stroke-linecap:round;stroke-width:3.58px;}.cls-8{stroke-miterlimit:10;}.cls-12,.cls-9{stroke-linejoin:round;}.cls-10{clip-path:url(#clip-path-2);}.cls-11{clip-path:url(#clip-path-3);}.cls-12{stroke:#7fe8f9;}.cls-13{fill:#7fe8f9;}</style><clipPath id="clip-path"><rect class="cls-1" x="8.88" y="26.51" width="182.24" height="146.99" rx="7.18"/></clipPath><clipPath id="clip-path-2"><rect class="cls-1" x="110.91" y="57.92" width="70.29" height="45.04" rx="2.47"/></clipPath><clipPath id="clip-path-3"><rect class="cls-1" x="110.91" y="110.42" width="70.29" height="45.04" rx="2.47"/></clipPath></defs><rect class="cls-2" x="8.88" y="26.51" width="182.24" height="146.99" rx="7.18"/><g class="cls-3"><rect class="cls-4" x="1.49" y="19.44" width="200.3" height="26.07"/></g><rect class="cls-2" x="150.27" y="31" width="8.44" height="8.44" rx="1"/><rect class="cls-2" x="162.9" y="31" width="8.44" height="8.44" rx="1"/><rect class="cls-2" x="175.45" y="31" width="8.44" height="8.44" rx="1"/><rect class="cls-5" x="110.91" y="57.92" width="70.29" height="45.04" rx="2.47"/><rect class="cls-6" x="19.8" y="110.42" width="77.44" height="16.76" rx="1.58"/><rect class="cls-7" x="110.91" y="110.42" width="70.29" height="45.04" rx="2.47"/><line class="cls-8" x1="22.24" y1="61.57" x2="97.24" y2="61.57"/><line class="cls-9" x1="112.42" y1="160.76" x2="179.44" y2="160.76"/><line class="cls-8" x1="22.24" y1="73.5" x2="97.24" y2="73.5"/><line class="cls-8" x1="22.24" y1="98.06" x2="97.24" y2="98.06"/><line class="cls-8" x1="22.24" y1="85.43" x2="62.01" y2="85.43"/><g class="cls-10"><polyline class="cls-9" points="110.91 102.95 123.09 90.77 129.02 96.7 153.14 72.58 160.28 79.72 180.9 59.1"/></g><g class="cls-11"><line class="cls-12" x1="121.09" y1="155.46" x2="121.09" y2="129.96"/><line class="cls-12" x1="131.01" y1="155.46" x2="131.01" y2="119.49"/><line class="cls-12" x1="140.93" y1="155.46" x2="140.93" y2="124.57"/><line class="cls-12" x1="150.85" y1="155.46" x2="150.85" y2="116.18"/><line class="cls-12" x1="160.77" y1="155.46" x2="160.77" y2="131.34"/><line class="cls-12" x1="170.69" y1="155.46" x2="170.69" y2="140.02"/></g><path class="cls-7" d="M37.06,147.76H51.87A14.82,14.82,0,1,1,37,132.94Z"/><path class="cls-13" d="M39.54,145.28l.18-14.82a14.82,14.82,0,0,1,14.63,14.78Z"/><line class="cls-8" x1="59.74" y1="144.04" x2="95.22" y2="144.04"/><line class="cls-8" x1="59.74" y1="151.48" x2="77.48" y2="151.48"/></svg>