<svg enable-background="new 0 0 173 35" height="35" viewBox="0 0 173 35" width="173" xmlns="http://www.w3.org/2000/svg"><g fill="#5f6368"><path d="m165.357 14.964-3.015 7.64h-.09l-3.129-7.64h-2.835l4.692 10.676-2.675 5.94h2.745l7.229-16.616z"/><path d="m144.164 8.617h-2.629v17.619h2.629z"/><path d="m134.303 8.617h-6.3v17.619h2.634v-6.668h3.671c2.914 0 5.78-2.109 5.78-5.472.002-3.361-2.869-5.479-5.785-5.479zm.07 8.49h-3.735v-6.027h3.74c.801 0 1.569.318 2.136.885.567.566.885 1.335.885 2.136s-.318 1.569-.885 2.136-1.335.885-2.136.885z"/><path d="m150.624 14.578c-1.904 0-3.877.839-4.693 2.699l2.336.975c.499-.975 1.428-1.286 2.402-1.286 1.359 0 2.742.818 2.766 2.269v.18c-.84-.449-1.778-.685-2.731-.687-2.516 0-5.078 1.381-5.078 3.967 0 2.356 2.058 3.874 4.373 3.874 1.77 0 2.745-.792 3.345-1.721h.092v1.358h2.54v-6.753c-.001-3.128-2.337-4.875-5.352-4.875zm-.316 9.657c-.862 0-2.058-.432-2.058-1.497 0-1.358 1.495-1.881 2.789-1.881.839-.022 1.669.181 2.402.589-.097.765-.468 1.469-1.044 1.981-.577.513-1.318.8-2.089.808z"/><path d="m55.487 26.618c-5.154 0-9.487-4.177-9.487-9.309 0-5.131 4.334-9.309 9.487-9.309 2.852 0 4.881 1.113 6.409 2.566l-1.802 1.794c-1.095-1.022-2.577-1.816-4.607-1.816-3.763 0-6.705 3.02-6.705 6.766s2.943 6.766 6.705 6.766c2.441 0 3.832-.976 4.721-1.862.729-.727 1.209-1.771 1.391-3.201h-6.112v-2.543h8.599c.092.454.137.999.137 1.589 0 1.907-.525 4.268-2.212 5.949-1.642 1.702-3.741 2.61-6.524 2.61z"/><path d="m77.522 20.624c0 3.451-2.665 5.994-5.934 5.994s-5.934-2.543-5.934-5.994c0-3.474 2.665-5.994 5.934-5.994s5.934 2.52 5.934 5.994zm-2.598 0c0-2.157-1.545-3.633-3.337-3.633s-3.337 1.476-3.337 3.633c0 2.134 1.545 3.633 3.337 3.633s3.337-1.498 3.337-3.633z"/><path d="m90.825 20.624c0 3.451-2.665 5.994-5.935 5.994-3.269 0-5.934-2.543-5.934-5.994 0-3.474 2.665-5.994 5.934-5.994 3.27 0 5.935 2.52 5.935 5.994zm-2.597 0c0-2.157-1.545-3.633-3.337-3.633-1.791 0-3.336 1.476-3.336 3.633 0 2.134 1.545 3.633 3.336 3.633 1.792 0 3.337-1.498 3.337-3.633z"/><path d="m103.796 14.993v10.763c0 4.427-2.622 6.244-5.725 6.244-2.919 0-4.675-1.953-5.337-3.542l2.303-.953c.411.976 1.414 2.134 3.034 2.134 1.984 0 3.216-1.226 3.216-3.519v-.863h-.092c-.593.727-1.733 1.362-3.17 1.362-3.01 0-5.77-2.611-5.77-5.971 0-3.383 2.76-6.017 5.77-6.017 1.436 0 2.577.636 3.17 1.34h.092v-.976h2.509zm-2.326 5.654c0-2.111-1.414-3.655-3.215-3.655-1.824 0-3.353 1.544-3.353 3.655 0 2.089 1.528 3.61 3.353 3.61 1.801 0 3.215-1.521 3.215-3.61z"/><path d="m108.432 8.636v17.619h-2.646v-17.619z"/><path d="m118.833 22.6 2.053 1.362c-.661.976-2.258 2.656-5.018 2.656-3.42 0-5.891-2.634-5.891-5.994 0-3.565 2.493-5.994 5.595-5.994 3.124 0 4.653 2.475 5.154 3.814l.274.682-8.051 3.315c.616 1.203 1.574 1.816 2.919 1.816 1.346 0 2.281-.658 2.965-1.657zm-6.317-2.157 5.383-2.225c-.297-.749-1.186-1.272-2.235-1.272-1.346 0-3.216 1.181-3.148 3.497z"/></g><path d="m19.54 16.782-13.416 14.059c.001.003.001.006.002.009.412 1.526 1.823 2.651 3.5 2.651.67 0 1.299-.179 1.838-.493l.043-.025 15.101-8.603z" fill="#ea4335"/><path d="m33.113 14.388-.013-.008-6.52-3.732-7.345 6.454 7.373 7.278 6.483-3.697c1.137-.606 1.909-1.789 1.909-3.154 0-1.355-.761-2.532-1.887-3.141z" fill="#fbbc04"/><path d="m6.123 4.158c-.081.294-.123.602-.123.921v24.842c.013.357.042.628.124.92l13.877-13.699z" fill="#4285f4"/><path d="m19.639 17.5 6.941-6.852-15.082-8.637c-.548-.324-1.188-.511-1.872-.511-1.676 0-3.09 1.126-3.502 2.655 0 .001-.001.002-.001.004z" fill="#34a853"/><path d="m0 0h173v35h-173z" fill="none"/></svg>